<svg width="50" height="51" viewBox="0 0 50 51" fill="none" xmlns="http://www.w3.org/2000/svg">
<g clip-path="url(#clip0_1575_507)">
<path d="M42.3149 7.82617H36.7671H32.2353C32.0427 4.00215 28.8712 0.950195 25 0.950195C21.129 0.950195 17.9573 4.00215 17.7647 7.82617H13.2329H7.68506C7.1457 7.82617 6.7085 8.26348 6.7085 8.80273V49.9736C6.7085 50.5129 7.1457 50.9502 7.68506 50.9502H42.3148C42.8542 50.9502 43.2914 50.5129 43.2914 49.9736V8.80273C43.2915 8.26348 42.8543 7.82617 42.3149 7.82617ZM14.2095 9.7793H18.7619C19.0372 9.7793 19.2997 9.66318 19.4848 9.45938C19.6699 9.25566 19.7604 8.9832 19.734 8.70918C19.7172 8.53438 19.7086 8.36123 19.7086 8.19463C19.7086 5.27705 22.0823 2.90332 25 2.90332C27.9177 2.90332 30.2914 5.27705 30.2914 8.19473C30.2914 8.36123 30.2829 8.53447 30.266 8.70928C30.2396 8.9833 30.3302 9.25576 30.5152 9.45947C30.7003 9.66328 30.9628 9.7794 31.2381 9.7794H35.7905V15.9145H14.2095V9.7793ZM41.3384 44.791H16.3314C15.7921 44.791 15.3549 45.2283 15.3549 45.7676C15.3549 46.3068 15.7921 46.7441 16.3314 46.7441H41.3384V48.9971H8.66162V42.7362H33.7471C34.2864 42.7362 34.7236 42.2989 34.7236 41.7597C34.7236 41.2204 34.2864 40.7831 33.7471 40.7831H8.66162V9.7793H12.2563V16.8909C12.2563 17.4303 12.6936 17.8675 13.2329 17.8675H36.7671C37.3064 17.8675 37.7437 17.4303 37.7437 16.8909V9.7793H41.3384V44.791Z" fill="#E4B556"/>
<path d="M33.7889 28.6574C34.4069 28.0391 34.7474 27.2172 34.7474 26.343C34.7475 24.6833 33.5051 23.309 31.9017 23.0991C31.9335 22.9162 31.9519 22.7292 31.9555 22.539C31.9741 21.5604 31.6031 20.6328 30.9108 19.9272C30.2127 19.2156 29.2401 18.8074 28.2426 18.8074C26.8505 18.8074 25.6351 19.5787 24.9996 20.7163C24.3637 19.5788 23.1485 18.8074 21.7577 18.8074C20.7501 18.8074 19.7698 19.2214 19.0682 19.9434C18.3806 20.6509 18.0172 21.5761 18.045 22.5484C18.0504 22.7352 18.0697 22.919 18.1019 23.0987C16.4969 23.3073 15.2529 24.6822 15.2529 26.343C15.2529 27.2172 15.5933 28.0391 16.2113 28.6574C16.6 29.0461 17.0691 29.3248 17.5812 29.4781C16.5725 30.5453 15.9719 31.9785 15.9719 33.5042C15.9719 36.7327 18.5983 39.359 21.8267 39.359C22.957 39.359 24.0589 39.0308 25.0001 38.4232C25.9414 39.0308 27.0433 39.359 28.1735 39.359C31.4019 39.359 34.0283 36.7326 34.0283 33.5042C34.0283 31.9785 33.4277 30.5453 32.419 29.4781C32.9309 29.3247 33.4001 29.046 33.7889 28.6574ZM28.2426 20.7605C28.7261 20.7605 29.1785 20.9503 29.5167 21.2951C29.8387 21.6232 30.0112 22.0518 30.0026 22.5018C29.9928 23.0214 29.7548 23.4917 29.3879 23.8185C29.3658 23.8368 29.3445 23.8561 29.3229 23.875C29.0192 24.1211 28.6374 24.273 28.2247 24.2806C27.9998 24.2846 27.7803 24.2437 27.5759 24.1619C27.5207 24.1349 27.4651 24.1086 27.409 24.0833C27.2668 24.0072 27.1339 23.9105 27.0146 23.7935C26.6712 23.456 26.4822 23.0042 26.4825 22.521C26.4833 21.5502 27.2727 20.7605 28.2426 20.7605ZM20.4689 21.3046C20.8049 20.9588 21.2746 20.7606 21.7577 20.7606C22.7265 20.7606 23.516 21.5508 23.5177 22.5221C23.5185 23.0035 23.3322 23.4529 22.9931 23.7878C22.8724 23.907 22.7373 24.0057 22.5921 24.0831C22.5377 24.1075 22.4839 24.133 22.4305 24.1589C22.2239 24.2422 22.001 24.2842 21.7716 24.2806C20.8212 24.2671 20.0253 23.465 19.9975 22.4926C19.9848 22.0523 20.1521 21.6304 20.4689 21.3046ZM17.5925 27.2766C17.3432 27.0273 17.206 26.6958 17.206 26.3431C17.2061 25.6154 17.7979 25.0235 18.5256 25.0235C18.8823 25.0235 19.2171 25.1628 19.4682 25.416C19.7139 25.6636 19.8478 25.9902 19.8451 26.3357C19.8438 26.51 19.8082 26.6761 19.7464 26.8288C19.723 26.8761 19.7009 26.9242 19.6788 26.9723C19.4527 27.383 19.0193 27.6623 18.5248 27.6626C18.5244 27.6626 18.5241 27.6626 18.5237 27.6626C18.1721 27.6626 17.8414 27.5256 17.5925 27.2766ZM28.1736 37.4061C27.2437 37.4061 26.3424 37.0724 25.6359 36.4665C25.453 36.3095 25.2266 36.2311 25.0001 36.2311C24.7736 36.2311 24.5472 36.3096 24.3643 36.4665C23.6579 37.0724 22.7566 37.4061 21.8267 37.4061C19.6753 37.4061 17.925 35.6558 17.925 33.5044C17.925 31.8737 18.9532 30.4009 20.4836 29.8399C20.8344 29.7114 21.0811 29.3939 21.1189 29.0222C21.1635 28.5865 21.2778 28.1741 21.4504 27.7957C21.4628 27.7709 21.4748 27.7459 21.4865 27.7209C21.8612 26.9437 22.4832 26.316 23.2486 25.9335C23.3083 25.9077 23.3672 25.8801 23.4254 25.851C23.9077 25.6396 24.4406 25.5226 25 25.5226C25.556 25.5226 26.0855 25.6382 26.5655 25.8472C26.6305 25.88 26.6963 25.9109 26.7629 25.9396C27.5319 26.3271 28.1553 26.9622 28.5267 27.7479C28.5314 27.7578 28.5361 27.7676 28.5409 27.7774C28.7182 28.1608 28.8359 28.5793 28.8812 29.0222C28.919 29.3939 29.1657 29.7114 29.5165 29.8399C31.0469 30.4009 32.0751 31.8737 32.0751 33.5044C32.0753 35.6558 30.3249 37.4061 28.1736 37.4061ZM31.4765 27.6625C31.4762 27.6625 31.4758 27.6625 31.4755 27.6625C30.9794 27.6622 30.5445 27.3806 30.3189 26.9671C30.2985 26.9226 30.2779 26.8782 30.2564 26.8343C30.193 26.6799 30.1565 26.5115 30.1551 26.3347C30.1521 25.9901 30.2856 25.664 30.531 25.4167C30.7823 25.163 31.1175 25.0235 31.4747 25.0235C32.2023 25.0235 32.7942 25.6155 32.7942 26.3431C32.7942 26.6957 32.6569 27.0272 32.4076 27.2765C32.1588 27.5255 31.8281 27.6625 31.4765 27.6625Z" fill="#E4B556"/>
<path d="M38.4683 41.5683C38.4556 41.5068 38.437 41.4453 38.4126 41.3857C38.3882 41.3271 38.3579 41.2705 38.3228 41.2177C38.2876 41.164 38.2466 41.1142 38.2017 41.0692C38.1567 41.0243 38.1069 40.9833 38.0532 40.9471C38.0005 40.9121 37.9429 40.8817 37.8843 40.8573C37.8257 40.8329 37.7642 40.8144 37.7017 40.8017C37.5757 40.7762 37.4458 40.7762 37.3198 40.8017C37.2573 40.8144 37.1968 40.8329 37.1372 40.8573C37.0786 40.8817 37.022 40.9121 36.9692 40.9471C36.9155 40.9833 36.8657 41.0243 36.8198 41.0692C36.7749 41.1142 36.7349 41.164 36.6987 41.2177C36.6636 41.2705 36.6333 41.3271 36.6089 41.3857C36.5845 41.4453 36.5659 41.5068 36.5532 41.5683C36.5405 41.6318 36.5347 41.6963 36.5347 41.7597C36.5347 41.8232 36.5405 41.8877 36.5532 41.9502C36.5659 42.0126 36.5845 42.0741 36.6089 42.1328C36.6333 42.1922 36.6636 42.2489 36.6987 42.3017C36.7349 42.3555 36.7749 42.4052 36.8198 42.4502C36.8657 42.4951 36.9155 42.5361 36.9692 42.5712C37.022 42.6063 37.0786 42.6367 37.1372 42.6611C37.1958 42.6855 37.2573 42.7041 37.3198 42.7167C37.3833 42.7294 37.4478 42.7362 37.5112 42.7362C37.5747 42.7362 37.6392 42.7294 37.7017 42.7167C37.7642 42.704 37.8257 42.6855 37.8843 42.6611C37.9429 42.6367 38.0005 42.6064 38.0532 42.5712C38.1069 42.5361 38.1567 42.4951 38.2017 42.4502C38.2466 42.4052 38.2876 42.3554 38.3228 42.3017C38.3579 42.249 38.3882 42.1923 38.4126 42.1328C38.437 42.0741 38.4556 42.0127 38.4683 41.9502C38.481 41.8877 38.4878 41.8232 38.4878 41.7597C38.4878 41.6963 38.481 41.6319 38.4683 41.5683Z" fill="#E4B556"/>
<path d="M13.5256 45.5771C13.5129 45.5146 13.4944 45.4531 13.47 45.3935C13.4456 45.3349 13.4153 45.2783 13.3801 45.2255C13.344 45.1718 13.303 45.1219 13.2581 45.077C13.2131 45.0321 13.1633 44.9911 13.1096 44.956C13.0569 44.9209 13.0002 44.8895 12.9416 44.8651C12.8821 44.8407 12.8206 44.8221 12.759 44.8095C12.6331 44.784 12.5032 44.784 12.3772 44.8095C12.3147 44.8222 12.2532 44.8407 12.1946 44.8651C12.135 44.8895 12.0784 44.9208 12.0256 44.956C11.9719 44.9911 11.9221 45.0321 11.8772 45.077C11.8323 45.1219 11.7913 45.1718 11.7561 45.2255C11.7209 45.2783 11.6907 45.3349 11.6663 45.3935C11.6418 45.4531 11.6233 45.5146 11.6106 45.5771C11.5979 45.6397 11.5911 45.7042 11.5911 45.7675C11.5911 45.831 11.5979 45.8956 11.6106 45.958C11.6233 46.0205 11.6418 46.082 11.6663 46.1406C11.6907 46.2001 11.7209 46.2568 11.7561 46.3094C11.7913 46.3632 11.8323 46.413 11.8772 46.458C11.9221 46.5029 11.9719 46.5439 12.0256 46.5791C12.0784 46.6141 12.135 46.6445 12.1946 46.6689C12.2532 46.6933 12.3147 46.7128 12.3772 46.7245C12.4397 46.7372 12.5041 46.744 12.5676 46.744C12.6311 46.744 12.6956 46.7372 12.759 46.7245C12.8206 46.7128 12.8821 46.6933 12.9416 46.6689C13.0002 46.6445 13.0569 46.6141 13.1096 46.5791C13.1633 46.5439 13.2131 46.5029 13.2581 46.458C13.303 46.413 13.344 46.3632 13.3801 46.3094C13.4153 46.2567 13.4456 46.2001 13.47 46.1406C13.4944 46.0819 13.5129 46.0205 13.5256 45.958C13.5383 45.8955 13.5442 45.831 13.5442 45.7675C13.5442 45.7042 13.5383 45.6396 13.5256 45.5771Z" fill="#E4B556"/>
<path d="M25.0395 4.39331C23.0062 4.39331 21.3521 6.04741 21.3521 8.08081C21.3521 10.1141 23.0062 11.7682 25.0395 11.7682C27.0727 11.7682 28.7268 10.1141 28.7268 8.08081C28.7268 6.04751 27.0727 4.39331 25.0395 4.39331ZM25.0395 9.81519C24.0832 9.81519 23.3052 9.03716 23.3052 8.08091C23.3052 7.12456 24.0832 6.34653 25.0395 6.34653C25.9958 6.34653 26.7737 7.12456 26.7737 8.08091C26.7736 9.03716 25.9957 9.81519 25.0395 9.81519Z" fill="#E4B556"/>
</g>
<defs>
<clipPath id="clip0_1575_507">
<rect width="50" height="50" fill="white" transform="translate(0 0.950195)"/>
</clipPath>
</defs>
</svg>
