<svg width="50" height="51" viewBox="0 0 50 51" fill="none" xmlns="http://www.w3.org/2000/svg">
<g clip-path="url(#clip0_1575_481)">
<path d="M20.8584 33.3945C20.8457 33.333 20.8271 33.2715 20.8027 33.2118C20.7783 33.1532 20.748 33.0966 20.7129 33.0438C20.6777 32.9901 20.6367 32.9404 20.5918 32.8954C20.5469 32.8505 20.4961 32.8094 20.4434 32.7733C20.3896 32.7382 20.333 32.7079 20.2744 32.6835C20.2158 32.6591 20.1543 32.6405 20.0918 32.6278C19.7744 32.5643 19.4375 32.6678 19.21 32.8954C19.165 32.9403 19.124 32.9901 19.0889 33.0438C19.0537 33.0966 19.0234 33.1532 18.999 33.2118C18.9746 33.2714 18.9561 33.3329 18.9434 33.3944C18.9307 33.4579 18.9248 33.5224 18.9248 33.5858C18.9248 33.6493 18.9307 33.7137 18.9434 33.7762C18.9561 33.8388 18.9746 33.9004 18.999 33.9589C19.0234 34.0184 19.0537 34.0751 19.0889 34.1278C19.125 34.1815 19.165 34.2313 19.21 34.2762C19.3926 34.4579 19.6436 34.5624 19.9014 34.5624C19.9648 34.5624 20.0293 34.5556 20.0918 34.5429C20.1543 34.5302 20.2158 34.5117 20.2744 34.4873C20.333 34.4629 20.3896 34.4326 20.4434 34.3974C20.4961 34.3623 20.5459 34.3213 20.5918 34.2763C20.6367 34.2314 20.6777 34.1816 20.7129 34.1279C20.748 34.0752 20.7783 34.0185 20.8027 33.959C20.8271 33.9004 20.8457 33.8389 20.8584 33.7763C20.8711 33.7138 20.8779 33.6494 20.8779 33.5859C20.8779 33.5224 20.8711 33.458 20.8584 33.3945Z" fill="#E4B556"/>
<path d="M46.7574 9.78252C46.7574 7.42334 45.8386 5.20537 44.1704 3.53711C42.5023 1.86895 40.2843 0.950195 37.9251 0.950195C35.5659 0.950195 33.3479 1.86895 31.6797 3.53711L27.9836 7.2332L26.3789 5.62852C25.9976 5.24727 25.3792 5.24727 24.9978 5.62852L21.9104 8.71592C21.7273 8.89912 21.6243 9.14746 21.6243 9.40644C21.6243 9.66543 21.7273 9.91377 21.9104 10.097L23.5151 11.7017L21.5146 13.7021L18.7216 16.495L9.50295 25.7138C7.72795 27.4889 6.88606 30.0313 7.251 32.5149L8.09143 38.235L6.43372 39.8927C6.05237 40.274 6.05237 40.8924 6.43372 41.2738C6.62444 41.4645 6.87434 41.5599 7.12424 41.5599C7.37415 41.5599 7.62415 41.4645 7.81477 41.2738L9.47249 39.6162L15.1925 40.4566C15.5748 40.5128 15.9581 40.5403 16.3402 40.5403C18.4403 40.5403 20.4918 39.7064 21.9937 38.2047L31.2122 28.9861L36.0058 24.1926L37.6104 25.7972C37.8011 25.9878 38.051 26.0832 38.3009 26.0832C38.5508 26.0832 38.8008 25.9878 38.9914 25.7972L42.0788 22.7098C42.2619 22.5266 42.3649 22.2782 42.3649 22.0192C42.3649 21.7603 42.2619 21.5119 42.0788 21.3287L40.4742 19.7241L44.1702 16.028C45.8387 14.3598 46.7574 12.1418 46.7574 9.78252ZM22.2051 15.7738L23.7839 17.3526C23.9746 17.5433 24.2245 17.6387 24.4744 17.6387C24.7243 17.6387 24.9743 17.5433 25.165 17.3526C25.5463 16.9713 25.5463 16.3529 25.165 15.9715L23.5862 14.3927L24.8961 13.0827L31.9595 20.1461L27.8566 24.249L20.7933 17.1856L22.2051 15.7738ZM20.6127 36.8235C19.2723 38.1641 17.3524 38.7993 15.4766 38.5242L9.98967 37.718L9.18342 32.2309C8.90784 30.3554 9.54358 28.4354 10.8841 27.0948L13.8691 24.1099L15.4478 25.6886C15.6385 25.8792 15.8884 25.9746 16.1383 25.9746C16.3882 25.9746 16.6382 25.8792 16.8288 25.6886C17.2102 25.3072 17.2102 24.6889 16.8288 24.3074L15.2501 22.7287L16.6477 21.3312L18.2264 22.9099C18.4171 23.1005 18.667 23.1959 18.9169 23.1959C19.1668 23.1959 19.4168 23.1005 19.6074 22.9099C19.9888 22.5285 19.9888 21.9102 19.6074 21.5287L18.0287 19.95L19.412 18.5667L26.4753 25.6301L21.955 30.1504C21.5737 30.5317 21.5737 31.1501 21.955 31.5315C22.1457 31.7222 22.3956 31.8176 22.6455 31.8176C22.8954 31.8176 23.1454 31.7222 23.3361 31.5315L27.8564 27.0112L29.1406 28.2954L20.6127 36.8235ZM30.5218 26.9144L29.2376 25.6302L33.3406 21.5272L34.6247 22.8114L30.5218 26.9144ZM38.3011 23.7255L36.6965 22.121L36.6964 22.1209L31.1415 16.5661L23.9821 9.40664L25.6884 7.70029L27.293 9.30478C27.293 9.30488 27.2931 9.30488 27.2931 9.30488L38.4028 20.4146C38.4031 20.4151 38.4037 20.4154 38.4041 20.4159L40.0074 22.0192L38.3011 23.7255ZM39.0933 18.3429L29.3647 8.61426L33.0608 4.91826C35.743 2.23594 40.1072 2.23594 42.7894 4.91826C44.0887 6.21758 44.8042 7.94502 44.8042 9.78262C44.8042 11.62 44.0887 13.3476 42.7894 14.6469L39.0933 18.3429Z" fill="#E4B556"/>
<path d="M7.42881 42.9094C7.05127 42.5482 6.45645 42.5482 6.07891 42.9094C5.41357 43.5457 3.24268 45.7529 3.24268 47.439C3.24268 49.375 4.81777 50.9502 6.75391 50.9502C8.69004 50.9502 10.2651 49.375 10.2651 47.439C10.2651 45.7529 8.09424 43.5457 7.42881 42.9094ZM6.75391 48.9971C5.89473 48.9971 5.1958 48.2982 5.1958 47.439C5.1958 46.9846 5.92705 45.9381 6.75391 45.0197C7.58086 45.9382 8.31201 46.9847 8.31201 47.439C8.31201 48.2982 7.61309 48.9971 6.75391 48.9971Z" fill="#E4B556"/>
</g>
<defs>
<clipPath id="clip0_1575_481">
<rect width="50" height="50" fill="white" transform="translate(0 0.950195)"/>
</clipPath>
</defs>
</svg>
