<svg width="50" height="51" viewBox="0 0 50 51" fill="none" xmlns="http://www.w3.org/2000/svg">
<g clip-path="url(#clip0_1575_491)">
<path d="M17.7019 34.6748C17.6902 34.6123 17.6716 34.5508 17.6472 34.4912C17.6228 34.4326 17.5925 34.376 17.5574 34.3233C17.5212 34.2696 17.4802 34.2198 17.4353 34.1748C17.3904 34.1299 17.3406 34.0889 17.2869 34.0537C17.2341 34.0176 17.1775 33.9883 17.1189 33.9639C17.0593 33.9395 16.9978 33.92 16.9353 33.9082C16.8103 33.8828 16.6804 33.8828 16.5544 33.9082C16.4919 33.92 16.4304 33.9395 16.3718 33.9639C16.3123 33.9883 16.2556 34.0176 16.2029 34.0537C16.1492 34.0889 16.0994 34.1299 16.0544 34.1748C16.0095 34.2198 15.9685 34.2696 15.9333 34.3233C15.8982 34.376 15.8679 34.4326 15.8435 34.4912C15.8191 34.5508 15.7996 34.6123 15.7878 34.6748C15.7751 34.7373 15.7683 34.8018 15.7683 34.8653C15.7683 35.1221 15.8728 35.374 16.0544 35.5557C16.2361 35.7373 16.488 35.8418 16.7449 35.8418C16.8083 35.8418 16.8728 35.835 16.9353 35.8223C16.9978 35.8106 17.0593 35.791 17.1189 35.7666C17.1775 35.7422 17.2341 35.7119 17.2869 35.6768C17.3406 35.6416 17.3904 35.6006 17.4353 35.5557C17.6169 35.374 17.7214 35.1221 17.7214 34.8653C17.7214 34.8018 17.7146 34.7373 17.7019 34.6748Z" fill="#E4B556"/>
<path d="M41.6923 25.9269C37.3922 25.9269 33.845 29.211 33.4264 33.4027C32.0046 33.694 30.7051 34.4198 29.7032 35.499C28.4965 36.7988 27.8319 38.4918 27.8319 40.2662V43.942C27.8319 46.7294 25.5642 48.9971 22.7768 48.9971C19.9894 48.9971 17.7217 46.7294 17.7217 43.942V38.5221C17.7217 37.9827 17.2845 37.5455 16.7451 37.5455C16.2058 37.5455 15.7686 37.9827 15.7686 38.5221V43.942C15.7686 47.8064 18.9124 50.9502 22.7769 50.9502C26.6412 50.9502 29.7851 47.8064 29.7851 43.942V40.2662C29.7851 37.9808 31.3399 36.0049 33.4682 35.401C34.0372 39.4314 37.5074 42.5422 41.6923 42.5422C46.2731 42.5422 49.9999 38.8154 49.9999 34.2345C49.9999 29.6537 46.2731 25.9269 41.6923 25.9269ZM41.6923 40.5891C38.1884 40.5891 35.3378 37.7385 35.3378 34.2345C35.3378 30.7306 38.1884 27.88 41.6923 27.88C45.1962 27.88 48.0468 30.7306 48.0468 34.2345C48.0468 37.7385 45.1962 40.5891 41.6923 40.5891Z" fill="#E4B556"/>
<path d="M41.6925 30.6627C39.7229 30.6627 38.1206 32.2651 38.1206 34.2345C38.1206 36.204 39.7229 37.8064 41.6925 37.8064C43.662 37.8064 45.2643 36.204 45.2643 34.2345C45.2643 32.2651 43.662 30.6627 41.6925 30.6627ZM41.6925 35.8532C40.7999 35.8532 40.0737 35.1271 40.0737 34.2345C40.0737 33.3419 40.8 32.6158 41.6925 32.6158C42.5851 32.6158 43.3111 33.342 43.3111 34.2345C43.3111 35.1271 42.585 35.8532 41.6925 35.8532Z" fill="#E4B556"/>
<path d="M32.5139 2.98926H28.7715V1.92676C28.7715 1.3874 28.3342 0.950195 27.7949 0.950195H21.8303C21.2909 0.950195 20.8537 1.3874 20.8537 1.92676V6.00488C20.8537 6.54424 21.2909 6.98145 21.8303 6.98145H27.7949C28.3342 6.98145 28.7715 6.54424 28.7715 6.00488V4.94238H31.5373V15.794C31.5373 23.9504 24.9016 30.5861 16.7452 30.5861C8.58887 30.5861 1.95312 23.9505 1.95312 15.794V4.94238H4.71895V6.00488C4.71895 6.54424 5.15615 6.98145 5.69551 6.98145H11.6602C12.1995 6.98145 12.6367 6.54424 12.6367 6.00488V1.92676C12.6367 1.3874 12.1995 0.950195 11.6602 0.950195H5.69551C5.15615 0.950195 4.71895 1.3874 4.71895 1.92676V2.98926H0.976562C0.437207 2.98926 0 3.42646 0 3.96582V15.794C0 25.0273 7.51191 32.5393 16.7452 32.5393C25.9785 32.5393 33.4904 25.0273 33.4904 15.794V3.96582C33.4904 3.42646 33.0531 2.98926 32.5139 2.98926ZM26.8184 5.02832H22.8068V2.90332H26.8184V5.02832ZM6.67207 2.90332H10.6836V5.02832H6.67207V2.90332Z" fill="#E4B556"/>
<path d="M25.5277 17.4654C26.1495 16.8444 26.492 16.0184 26.492 15.1396C26.492 14.2333 26.1169 13.3548 25.4629 12.7295C24.9513 12.2404 24.3165 11.9433 23.6391 11.8697C23.6688 11.6823 23.6845 11.4905 23.6845 11.2953C23.6845 9.23931 22.0118 7.56665 19.9559 7.56665C18.5542 7.56665 17.3294 8.34819 16.6927 9.49917C16.054 8.34839 14.8304 7.56665 13.4342 7.56665C11.3781 7.56655 9.70547 9.23911 9.70547 11.2952C9.70547 11.4943 9.72187 11.6897 9.75264 11.8807C9.04697 11.9702 8.3918 12.285 7.8751 12.7965C7.24492 13.4205 6.89795 14.2525 6.89795 15.1395C6.89795 16.0184 7.24043 16.8444 7.8623 17.4655C8.2543 17.8569 8.72764 18.1367 9.24385 18.2898C8.22676 19.3628 7.621 20.8054 7.621 22.3416C7.621 25.5852 10.2599 28.2241 13.5035 28.2241C14.6404 28.2241 15.7486 27.8935 16.695 27.2819C17.6414 27.8936 18.7497 28.2241 19.8865 28.2241C23.1302 28.2241 25.769 25.5852 25.769 22.3416C25.769 20.8053 25.1633 19.3627 24.1461 18.2897C24.6624 18.1366 25.1358 17.8568 25.5277 17.4654ZM19.9558 9.51968C20.9348 9.51968 21.7312 10.3162 21.7312 11.2952C21.7312 12.2787 20.9461 13.0585 19.9438 13.0708C19.692 13.0728 19.4475 13.0205 19.2229 12.9216C19.1886 12.9053 19.1541 12.8895 19.1193 12.8739C18.9686 12.7952 18.8288 12.6936 18.7046 12.5706C18.365 12.2341 18.1788 11.7822 18.1802 11.298C18.183 10.3173 18.9796 9.51968 19.9558 9.51968ZM13.434 9.51968C14.4057 9.51968 15.2021 10.3194 15.2096 11.3025C15.2132 11.7845 15.0313 12.2335 14.6977 12.5666C14.5792 12.6847 14.4459 12.7825 14.3019 12.8601C14.2383 12.8882 14.1753 12.9175 14.1129 12.9479C13.9046 13.0293 13.6787 13.0717 13.4431 13.0707C12.4591 13.0615 11.6586 12.265 11.6586 11.2951C11.6586 10.3162 12.4551 9.51968 13.434 9.51968ZM9.24248 16.0834C8.99004 15.8313 8.85098 15.4961 8.85098 15.1394C8.85098 14.7778 8.99238 14.4386 9.24922 14.1844C9.4956 13.9405 9.81885 13.8067 10.1607 13.8067C10.1651 13.8067 10.1695 13.8067 10.1738 13.8068C10.8881 13.8139 11.5029 14.4326 11.5164 15.1576C11.5188 15.289 11.4997 15.418 11.4617 15.5416C11.4063 15.6496 11.3538 15.7593 11.305 15.8712C11.2597 15.9391 11.2077 16.0037 11.1488 16.0637C10.8949 16.3227 10.5428 16.4715 10.1824 16.472C10.1818 16.472 10.1812 16.472 10.1806 16.472C9.82656 16.472 9.49346 16.334 9.24248 16.0834ZM19.8864 26.2708C18.9498 26.2708 18.0422 25.9347 17.3308 25.3245C17.1479 25.1676 16.9214 25.0891 16.6949 25.0891C16.4685 25.0891 16.242 25.1675 16.0591 25.3245C15.3477 25.9347 14.44 26.2708 13.5034 26.2708C11.3367 26.2708 9.57402 24.5081 9.57402 22.3414C9.57402 20.6991 10.6096 19.2159 12.1508 18.6507C12.5016 18.5221 12.7482 18.2047 12.7861 17.8331C12.8245 17.4569 12.9146 17.098 13.0491 16.7631C13.1287 16.6242 13.1974 16.48 13.2549 16.3316C13.634 15.645 14.2108 15.0889 14.9073 14.7349C14.988 14.701 15.0672 14.6638 15.1452 14.6243C15.6215 14.4211 16.1453 14.3086 16.6949 14.3086C17.2582 14.3086 17.7947 14.4263 18.2804 14.6392C18.3386 14.6682 18.3975 14.6958 18.457 14.7215C19.2402 15.1124 19.8746 15.7579 20.2504 16.5573C20.2528 16.5624 20.2553 16.5675 20.2578 16.5726C20.4382 16.9606 20.5579 17.3844 20.6037 17.8332C20.6416 18.2048 20.8883 18.5223 21.2391 18.6508C22.7804 19.2159 23.8158 20.6991 23.8158 22.3415C23.8158 24.5081 22.053 26.2708 19.8864 26.2708ZM23.2091 16.4719C23.2085 16.4719 23.2079 16.4719 23.2073 16.4719C22.7017 16.4713 22.2595 16.1816 22.0334 15.7579C22.0146 15.7172 21.996 15.6766 21.9764 15.6366C21.9119 15.4803 21.875 15.3098 21.8735 15.1309C21.8676 14.4346 22.4851 13.8401 23.25 13.8057C23.2668 13.8049 23.2837 13.8046 23.3005 13.8046C23.5981 13.8046 23.885 13.923 24.1131 14.1411C24.3836 14.3998 24.5388 14.7636 24.5388 15.1394C24.5388 15.4961 24.3998 15.8312 24.1475 16.0833C23.8964 16.3339 23.5633 16.4719 23.2091 16.4719Z" fill="#E4B556"/>
</g>
<defs>
<clipPath id="clip0_1575_491">
<rect width="50" height="50" fill="white" transform="translate(0 0.950195)"/>
</clipPath>
</defs>
</svg>
