<svg width="50" height="51" viewBox="0 0 50 51" fill="none" xmlns="http://www.w3.org/2000/svg">
<g clip-path="url(#clip0_1575_523)">
<path d="M49.0234 11.271H45.5712V6.49325C45.5712 5.95389 45.134 5.51669 44.5946 5.51669H36.0071V2.54657C36.0071 2.00721 35.5699 1.57001 35.0306 1.57001H14.9693C14.43 1.57001 13.9928 2.00721 13.9928 2.54657V5.51532L5.40518 5.51669C4.86592 5.51678 4.42881 5.95399 4.42881 6.49325V11.2709H0.976562C0.437207 11.2709 0 11.7081 0 12.2474V49.3537C0 49.8931 0.437207 50.3303 0.976562 50.3303H49.0234C49.5628 50.3303 50 49.8931 50 49.3537V12.2475C50 11.7082 49.5628 11.271 49.0234 11.271ZM36.0071 7.46981H43.618V11.2709H36.0071V7.46981ZM15.9459 3.52313H34.0541V11.2709H15.9459V3.52313ZM6.38193 7.46962L13.9927 7.46835V11.2708H6.38193V7.46962ZM48.0469 43.5266H9.97129C9.43193 43.5266 8.99473 43.9639 8.99473 44.5032C8.99473 45.0426 9.43193 45.4798 9.97129 45.4798H48.0469V48.3771H1.95312V18.0746H40.0287C40.5681 18.0746 41.0053 17.6374 41.0053 17.098C41.0053 16.5587 40.5681 16.1215 40.0287 16.1215H1.95312V13.2241H48.0469V43.5266Z" fill="#E4B556"/>
<path d="M44.8684 16.9071C44.8557 16.8446 44.8372 16.7831 44.8127 16.7245C44.7883 16.6659 44.7581 16.6093 44.7229 16.5555C44.6868 16.5028 44.6467 16.452 44.6018 16.4071C44.5559 16.3622 44.5061 16.3212 44.4534 16.286C44.3997 16.2509 44.343 16.2206 44.2844 16.1962C44.2258 16.1718 44.1643 16.1532 44.1018 16.1405C43.9758 16.1151 43.8459 16.1151 43.72 16.1405C43.6575 16.1532 43.5959 16.1718 43.5374 16.1962C43.4788 16.2206 43.4221 16.2509 43.3684 16.286C43.3157 16.3212 43.2659 16.3622 43.22 16.4071C43.1751 16.452 43.135 16.5028 43.0989 16.5555C43.0637 16.6093 43.0334 16.6659 43.009 16.7245C42.9846 16.7831 42.9661 16.8446 42.9534 16.9071C42.9407 16.9706 42.9348 17.0341 42.9348 17.0975C42.9348 17.162 42.9407 17.2255 42.9534 17.2889C42.9661 17.3514 42.9846 17.4131 43.009 17.4716C43.0334 17.5301 43.0637 17.5868 43.0989 17.6395C43.135 17.6932 43.1751 17.743 43.22 17.788C43.2659 17.8339 43.3157 17.8739 43.3684 17.91C43.4221 17.9452 43.4788 17.9755 43.5374 17.9999C43.5959 18.0243 43.6575 18.0428 43.72 18.0555C43.7834 18.0682 43.8469 18.0751 43.9114 18.0751C43.9749 18.0751 44.0383 18.0682 44.1018 18.0555C44.1643 18.0428 44.2258 18.0243 44.2844 17.9999C44.343 17.9755 44.3997 17.9452 44.4534 17.91C44.5061 17.8739 44.5559 17.8339 44.6018 17.788C44.6467 17.743 44.6868 17.6932 44.7229 17.6395C44.7581 17.5868 44.7883 17.5301 44.8127 17.4716C44.8372 17.413 44.8557 17.3514 44.8684 17.2889C44.8811 17.2255 44.887 17.162 44.887 17.0975C44.887 17.0341 44.8812 16.9706 44.8684 16.9071Z" fill="#E4B556"/>
<path d="M7.04663 44.3126C7.03394 44.2501 7.01538 44.1886 6.99097 44.13C6.96655 44.0704 6.93628 44.0138 6.90112 43.9611C6.86499 43.9073 6.82495 43.8575 6.78003 43.8126C6.73413 43.7677 6.68433 43.7267 6.63159 43.6915C6.57788 43.6564 6.52124 43.6261 6.46265 43.6017C6.40405 43.5773 6.34253 43.5587 6.28003 43.546C6.15405 43.5206 6.02417 43.5206 5.89819 43.546C5.83569 43.5587 5.77417 43.5773 5.71558 43.6017C5.65698 43.6261 5.60034 43.6564 5.54663 43.6915C5.4939 43.7267 5.44312 43.7677 5.39819 43.8126C5.35327 43.8575 5.31226 43.9073 5.2771 43.9611C5.24194 44.0138 5.21167 44.0704 5.18726 44.13C5.16284 44.1886 5.14429 44.2501 5.13159 44.3126C5.1189 44.3751 5.11206 44.4396 5.11206 44.503C5.11206 44.5665 5.1189 44.631 5.13159 44.6945C5.14429 44.756 5.16284 44.8175 5.18726 44.8771C5.21167 44.9357 5.24194 44.9923 5.2771 45.045C5.31226 45.0988 5.35327 45.1486 5.39819 45.1935C5.44312 45.2384 5.4939 45.2794 5.54663 45.3155C5.60034 45.3507 5.65698 45.381 5.71558 45.4054C5.77417 45.4298 5.83569 45.4484 5.89819 45.4611C5.96167 45.4737 6.02515 45.4796 6.0896 45.4796C6.15308 45.4796 6.21655 45.4737 6.28003 45.4611C6.34253 45.4484 6.40405 45.4298 6.46265 45.4054C6.52124 45.381 6.57788 45.3507 6.63159 45.3155C6.68433 45.2794 6.73413 45.2384 6.78003 45.1935C6.82495 45.1486 6.86499 45.0988 6.90112 45.045C6.93628 44.9923 6.96655 44.9357 6.99097 44.8771C7.01538 44.8175 7.03394 44.756 7.04663 44.6945C7.05933 44.631 7.06519 44.5665 7.06519 44.503C7.06519 44.4396 7.05933 44.3751 7.04663 44.3126Z" fill="#E4B556"/>
<path d="M46.4889 27.8461C46.4889 25.3598 44.4663 23.3372 41.9801 23.3372C39.7599 23.3372 37.9094 24.95 37.5388 27.0657H35.3603C33.8272 22.8261 29.762 19.788 25 19.788C20.238 19.788 16.1727 22.8261 14.6396 27.0657H12.4612C12.0906 24.95 10.2401 23.3372 8.01987 23.3372C5.53374 23.3372 3.51099 25.3598 3.51099 27.8461C3.51099 28.9485 3.90972 29.9912 4.61343 30.8007C3.90962 31.6102 3.51099 32.6529 3.51099 33.7553C3.51099 36.2414 5.53364 38.264 8.01987 38.264C10.2401 38.264 12.0906 36.6513 12.4612 34.5356H14.6396C16.1727 38.7752 20.2379 41.8134 25 41.8134C29.762 41.8134 33.8271 38.7752 35.3603 34.5356H37.5387C37.9093 36.6513 39.7598 38.264 41.98 38.264C44.4663 38.264 46.4888 36.2414 46.4888 33.7553C46.4888 32.6528 46.0901 31.6101 45.3864 30.8007C46.0902 29.9912 46.4889 28.9485 46.4889 27.8461ZM11.5467 32.5828C11.2785 32.5828 11.0221 32.693 10.8377 32.8879C10.6532 33.0822 10.557 33.3442 10.5714 33.6121C10.574 33.6595 10.5756 33.7072 10.5756 33.7553C10.5756 35.1645 9.42915 36.3109 8.01997 36.3109C6.61069 36.3109 5.46421 35.1644 5.46421 33.7553C5.46421 32.8917 5.89653 32.0924 6.62075 31.6171C6.89585 31.4365 7.06147 31.1297 7.06147 30.8007C7.06147 30.4717 6.89575 30.1647 6.62065 29.9843C5.89653 29.5091 5.46421 28.7097 5.46421 27.8461C5.46421 26.4368 6.61069 25.2903 8.01997 25.2903C9.42925 25.2903 10.5756 26.4368 10.5756 27.8461C10.5756 27.8941 10.574 27.9419 10.5714 27.9893C10.5569 28.2571 10.6531 28.5191 10.8375 28.7138C11.022 28.9086 11.2784 29.0188 11.5465 29.0188H14.1309C14.1283 29.035 14.1265 29.0514 14.124 29.0678C14.1047 29.189 14.0873 29.3109 14.072 29.4335C14.0686 29.4607 14.0658 29.4881 14.0626 29.5154C14.0493 29.6296 14.0376 29.7441 14.0279 29.8594C14.026 29.8811 14.0238 29.9027 14.0221 29.9245C14.012 30.0534 14.0043 30.183 13.9986 30.3132C13.9973 30.3423 13.9963 30.3714 13.9953 30.4006C13.9905 30.5335 13.9873 30.6668 13.9873 30.8009C13.9873 30.9349 13.9906 31.0682 13.9953 31.2012C13.9963 31.2303 13.9973 31.2595 13.9986 31.2886C14.0042 31.4186 14.0119 31.5482 14.0221 31.6771C14.0239 31.6989 14.0261 31.7207 14.028 31.7425C14.0377 31.8575 14.0494 31.9721 14.0626 32.0861C14.0659 32.1135 14.0687 32.1409 14.072 32.1682C14.0873 32.2907 14.1047 32.4125 14.124 32.5337C14.1265 32.55 14.1283 32.5665 14.131 32.5828H11.5467ZM34.0547 31.0846C34.0539 31.1126 34.0527 31.1405 34.0515 31.1683C34.0487 31.2386 34.0451 31.3087 34.0407 31.3787C34.0389 31.4064 34.0374 31.4342 34.0354 31.4618C34.0289 31.5522 34.0211 31.6426 34.012 31.7326C34.0092 31.7593 34.0058 31.7856 34.0029 31.8122C33.9958 31.8762 33.988 31.94 33.9796 32.0038C33.9742 32.0448 33.9684 32.0857 33.9625 32.1265C33.9554 32.1747 33.9476 32.2228 33.9398 32.2709C33.9206 32.3886 33.8996 32.5057 33.8758 32.6219C33.8756 32.6226 33.8755 32.6235 33.8753 32.6243C33.8624 32.6878 33.8483 32.751 33.8339 32.8139C33.83 32.8311 33.8261 32.8484 33.8221 32.8656C32.8852 36.8695 29.2855 39.8603 25.0001 39.8603C20.7146 39.8603 17.115 36.8695 16.178 32.8656C16.174 32.8484 16.1701 32.8311 16.1662 32.8139C16.1518 32.751 16.1378 32.6878 16.1248 32.6243C16.1246 32.6235 16.1245 32.6226 16.1243 32.6219C16.1004 32.5057 16.0795 32.3886 16.0603 32.2709C16.0525 32.2228 16.0447 32.1748 16.0376 32.1265C16.0317 32.0857 16.0259 32.0448 16.0205 32.0038C16.012 31.94 16.0043 31.8762 15.9972 31.8122C15.9943 31.7856 15.9908 31.7593 15.9881 31.7326C15.979 31.6426 15.9712 31.5522 15.9647 31.4618C15.9626 31.4342 15.9612 31.4064 15.9594 31.3787C15.955 31.3087 15.9513 31.2386 15.9486 31.1683C15.9474 31.1404 15.9462 31.1126 15.9454 31.0846C15.9424 30.9901 15.9405 30.8954 15.9405 30.8006C15.9405 30.7057 15.9424 30.6111 15.9454 30.5165C15.9462 30.4886 15.9474 30.4606 15.9486 30.4328C15.9514 30.3626 15.955 30.2925 15.9594 30.2224C15.9612 30.1947 15.9626 30.167 15.9647 30.1393C15.9712 30.0489 15.979 29.9586 15.9881 29.8685C15.9909 29.842 15.9943 29.8157 15.9972 29.7891C16.0043 29.7251 16.0121 29.6611 16.0206 29.5972C16.026 29.5563 16.0318 29.5155 16.0377 29.4748C16.0448 29.4264 16.0526 29.3782 16.0604 29.3301C16.0793 29.2147 16.0999 29.1 16.1231 28.9862C16.1237 28.9831 16.1243 28.98 16.1249 28.9768C16.1378 28.9136 16.1518 28.8507 16.1661 28.7879C16.1701 28.7704 16.174 28.7528 16.1781 28.7353C17.115 24.7316 20.7146 21.741 25 21.741C29.2851 21.741 32.8848 24.7316 33.8219 28.7353C33.826 28.7528 33.83 28.7703 33.8339 28.7879C33.8482 28.8507 33.8622 28.9136 33.8751 28.9768C33.8758 28.98 33.8763 28.9831 33.8769 28.9862C33.9001 29.1 33.9207 29.2148 33.9396 29.3301C33.9475 29.3782 33.9552 29.4264 33.9624 29.4748C33.9683 29.5155 33.9741 29.5563 33.9795 29.5972C33.988 29.6611 33.9958 29.7251 34.0029 29.7891C34.0058 29.8156 34.0092 29.842 34.012 29.8685C34.0211 29.9587 34.0289 30.0489 34.0354 30.1393C34.0375 30.167 34.0389 30.1947 34.0407 30.2224C34.0451 30.2925 34.0488 30.3626 34.0515 30.4328C34.0527 30.4607 34.0539 30.4886 34.0547 30.5165C34.0577 30.611 34.0596 30.7057 34.0596 30.8006C34.0596 30.8954 34.0577 30.99 34.0547 31.0846ZM43.3791 31.617C44.1033 32.0923 44.5356 32.8916 44.5356 33.7552C44.5356 35.1644 43.3891 36.3108 41.9799 36.3108C40.5707 36.3108 39.4242 35.1643 39.4242 33.7552C39.4242 33.7071 39.4258 33.6594 39.4285 33.612C39.443 33.3442 39.3467 33.0822 39.1624 32.8875C38.9779 32.6928 38.7215 32.5824 38.4534 32.5824H35.8691C35.8717 32.5661 35.8735 32.5496 35.876 32.5333C35.8953 32.4121 35.9127 32.2903 35.928 32.1679C35.9314 32.1405 35.9342 32.1132 35.9374 32.0857C35.9506 31.9717 35.9623 31.8571 35.9721 31.7421C35.974 31.7203 35.9762 31.6986 35.978 31.6767C35.9881 31.5478 35.9958 31.4182 36.0014 31.2882C36.0027 31.2591 36.0037 31.2299 36.0047 31.2008C36.0095 31.0679 36.0127 30.9345 36.0127 30.8005C36.0127 30.6664 36.0094 30.5331 36.0047 30.4002C36.0037 30.3711 36.0027 30.3419 36.0014 30.3128C35.9958 30.1827 35.9881 30.053 35.978 29.9241C35.9762 29.9023 35.974 29.8807 35.9722 29.859C35.9625 29.7438 35.9508 29.6292 35.9375 29.515C35.9342 29.4877 35.9314 29.4603 35.9281 29.4331C35.9128 29.3105 35.8954 29.1887 35.8761 29.0674C35.8735 29.0514 35.8717 29.035 35.8691 29.0187H38.4534C38.7215 29.0187 38.978 28.9085 39.1624 28.7137C39.3468 28.519 39.443 28.257 39.4285 27.9892C39.4259 27.9418 39.4242 27.894 39.4242 27.846C39.4242 26.4367 40.5707 25.2902 41.9799 25.2902C43.3892 25.2902 44.5356 26.4367 44.5356 27.846C44.5356 28.7095 44.1033 29.5089 43.3792 29.9842C43.1041 30.1646 42.9383 30.4716 42.9383 30.8006C42.9383 31.1296 43.104 31.4365 43.3791 31.617Z" fill="#E4B556"/>
<path d="M28.8616 29.8242H25.9766V26.9392C25.9766 26.3999 25.5394 25.9626 25.0001 25.9626C24.4607 25.9626 24.0235 26.3999 24.0235 26.9392V29.8242H21.1384C20.5991 29.8242 20.1619 30.2614 20.1619 30.8007C20.1619 31.34 20.5991 31.7773 21.1384 31.7773H24.0234V34.6624C24.0234 35.2017 24.4606 35.6389 25 35.6389C25.5393 35.6389 25.9765 35.2017 25.9765 34.6624V31.7773H28.8615C29.4008 31.7773 29.838 31.3401 29.838 30.8007C29.8381 30.2614 29.4009 29.8242 28.8616 29.8242Z" fill="#E4B556"/>
</g>
<defs>
<clipPath id="clip0_1575_523">
<rect width="50" height="50" fill="white" transform="translate(0 0.950195)"/>
</clipPath>
</defs>
</svg>
